<?xml version="1.0" encoding="utf-8"?>
<!-- Generator: Adobe Illustrator 16.0.0, SVG Export Plug-In . SVG Version: 6.00 Build 0)  -->
<!DOCTYPE svg PUBLIC "-//W3C//DTD SVG 1.1//EN" "http://www.w3.org/Graphics/SVG/1.1/DTD/svg11.dtd">
<svg version="1.1" id="Layer_1" xmlns="http://www.w3.org/2000/svg" xmlns:xlink="http://www.w3.org/1999/xlink" x="0px" y="0px"
	 width="100px" height="100px" viewBox="0 0 100 100" enable-background="new 0 0 100 100" xml:space="preserve">
<g>
	<path fill="#F0F0F0" d="M60.743,33.002l-3.816,2.847l4.283,5.743l3.817-2.84l5.686,2.45l0.554,4.724l7.116-0.833l-0.553-4.723
		l4.967-3.704l4.369,1.877L90,31.965l-4.37-1.883l-0.724-6.153l3.816-2.847l-4.279-5.74l-3.82,2.847l-5.689-2.453l-0.554-4.727
		l-7.116,0.833l0.557,4.727l-4.967,3.7l-4.373-1.883l-2.834,6.58l4.373,1.883L60.743,33.002z M72.023,21.662
		c3.76-0.44,7.163,2.247,7.604,6.007c0.443,3.76-2.244,7.167-6.004,7.607c-3.764,0.44-7.163-2.25-7.606-6.01
		C65.58,25.505,68.264,22.102,72.023,21.662z"/>
	<path fill="#F0F0F0" d="M88.109,73.291l-0.863-7.105l-4.727,0.57l-3.72-4.955l1.874-4.375l-6.59-2.814l-1.871,4.377l-6.149,0.747
		l-2.856-3.813l-5.73,4.3l2.857,3.81L57.9,69.732l-4.727,0.572l0.863,7.109l4.723-0.566l3.721,4.953l-1.871,4.375l6.591,2.816
		l1.87-4.377l6.15-0.744l2.855,3.805l5.727-4.297l-2.85-3.811l2.43-5.699L88.109,73.291z M76.943,74.492
		c-1.483,3.482-5.51,5.1-8.986,3.613c-3.486-1.484-5.101-5.51-3.617-8.998c1.483-3.477,5.51-5.096,8.99-3.605
		C76.813,66.984,78.427,71.008,76.943,74.492z"/>
	<path fill="#F0F0F0" d="M54.373,59.485l2.483-6.003l5.604-0.527v-9.006l-5.604-0.523l-2.483-6.007l3.587-4.327l-6.37-6.37
		l-4.33,3.59l-6.003-2.49l-0.523-5.6h-9.01l-0.523,5.6l-6.003,2.487l-4.33-3.587l-6.37,6.37l3.59,4.33l-2.49,6.003L10,43.949v9.006
		l5.597,0.527l2.49,6.003l-3.59,4.327l6.37,6.369l4.33-3.586l6.006,2.486l0.52,5.604h9.01l0.523-5.604l6.003-2.486l4.33,3.586
		l6.37-6.369L54.373,59.485z M36.23,59.985c-6.367,0-11.533-5.17-11.533-11.53c0-6.37,5.167-11.533,11.533-11.533
		c6.37,0,11.533,5.164,11.533,11.533C47.763,54.814,42.6,59.985,36.23,59.985z"/>
</g>
</svg>
